<svg fill="#fff" id="Layer_1" enable-background="new 0 0 512.424 512.424" height="512" viewBox="0 0 512.424 512.424" width="512" xmlns="http://www.w3.org/2000/svg"><path d="m444.738 245c-19.99 0-36.035 7.863-47.5 17.096-48.831-38.363-114.014-9.605-115 55.091-2.281 55.905 65.335 107.911 106.2 127.773 5.551 2.72 12.048 2.72 17.6 0 41.064-19.943 108.529-72.066 106.199-127.774-.018-38.032-27.267-73.009-67.499-72.186zm-47.43 159.311c-27.401-16.031-74.327-48.853-75.071-87.124 0-.323.315-32.187 27.5-32.187 18.976 0 29.315 15.282 30.329 16.857 7.38 13.48 26.965 13.476 34.342 0 1.014-1.575 11.354-16.857 30.329-16.857 27.186 0 27.5 31.864 27.5 32.187.001 36.926-47.971 71.816-74.929 87.124zm14.93-325.607c.993-32.979 36.583-35.103 50-13.585 0 0 8.263-14.119 25-14.119 19.068 0 25 17.649 25 27.704 0 33.587-50 58.296-50 58.296s-50-24.709-50-58.296zm-78.722 376.51c5.562 9.543 2.337 21.788-7.206 27.352-244.322 132.203-463.083-208.654-220.791-358.083 12.814-7.212 29.189 2.034 29.635 16.728.844 21.335 4.578 39.181 11.128 53.279 23.021-10.432 40.298-28.401 51.479-53.593 13.422-30.239 18.114-71.388 13.567-118.995-.683-7.15 2.521-14.119 8.395-18.254 5.873-4.137 13.514-4.804 20.016-1.751 81.138 37.807 142.888 104.745 174.005 188.079 3.88 10.342-1.359 21.871-11.701 25.75-10.345 3.883-21.87-1.36-25.75-11.701-17.195-45.839-52.278-106.479-123.243-149.667.248 39.677-6.02 74.135-18.728 102.768-18.129 40.842-49.652 68.874-91.159 81.064-8.118 2.383-16.854-.597-21.822-7.442-10.415-14.352-17.783-31.986-22.036-52.671-35.252 29.33-60.177 74.19-59.066 117.321-1.194 134.674 150.193 221.457 265.926 152.612 9.542-5.563 21.788-2.338 27.351 7.204z"/></svg>